<svg width="160" height="180" viewBox="0 0 160 180" fill="none" xmlns="http://www.w3.org/2000/svg">
<path d="M148.688 105.792C168.938 136.798 147.52 159.843 144.015 162.776C136.505 169.062 132.332 173.252 122.986 176.185C98.4526 180.794 86.3806 164.452 83.6546 162.357C82.9461 161.813 75.4768 151.882 60.6788 149.368C48.8404 147.357 39.6501 140.988 36.5347 138.055C28.9438 130.167 17.8627 118.663 6.58433 106.972L4 96.5443L15.9812 93.1449L17.8425 73.1091C6.93875 60.539 14.2484 48.942 23.2944 47.9687C34.977 46.7117 50.6593 62.4943 53.9044 64.729L67.5004 77.0668C55.444 63.2579 17.8425 42.9406 34.5876 21.9903C42.2932 12.3496 55.7108 20.6896 62.0944 26.9204C52.9058 16.6846 61.875 8.81449 65.3519 5.64907C70.4143 1.04006 82.0971 2.716 89.1067 8.58209C92.4834 11.408 98.6616 18.6095 105.073 26.8609C111.97 35.7381 119.137 45.8305 123.376 52.9967C131.554 66.824 128.438 74.7851 148.688 105.792Z" fill="#FA7C9A"/>
<path d="M62.0944 26.9204C52.9058 16.6846 61.875 8.81449 65.3519 5.64907C70.4143 1.04006 82.0971 2.716 89.1067 8.58209C92.4834 11.408 98.6616 18.6095 105.073 26.8609M62.0944 26.9204C62.4959 27.3676 76.6126 46.7451 77.0854 47.2012M62.0944 26.9204C62.5653 27.3801 76.6841 46.7597 77.0854 47.2012M62.0944 26.9204C55.7108 20.6896 42.2932 12.3496 34.5876 21.9903C17.8425 42.9406 55.4439 63.2579 67.5004 77.0668L53.9044 64.729C50.6593 62.4943 34.977 46.7117 23.2944 47.9687C14.2484 48.942 6.93875 60.539 17.8425 73.1091M77.0854 47.2012L81.8779 52.9968M17.8425 73.1091C26.5656 83.1653 59.8885 104.318 64.1722 109.067C65.9895 111.023 72.5058 112.671 77.8019 106.972C83.098 101.274 88.1864 95.3192 88.3162 95.0399M17.8425 73.1091L15.9812 93.1449L4 96.5443L6.58433 106.972C17.8627 118.663 28.9438 130.167 36.5347 138.055C39.6501 140.988 48.8404 147.357 60.6788 149.368C75.4768 151.882 82.9461 161.813 83.6546 162.357C86.3806 164.452 98.4526 180.794 122.986 176.185C132.332 173.252 136.505 169.062 144.015 162.776C147.52 159.843 168.938 136.798 148.688 105.792C128.438 74.7851 131.554 66.824 123.376 52.9968C119.137 45.8305 111.97 35.7381 105.073 26.8609M88.3162 95.0399C78.3138 94.3118 70.0763 87.2346 66.5087 82.6697L105.073 26.8609M88.3162 95.0399C91.7794 95.2919 95.4542 94.7829 99.22 93.1449C113.862 86.776 118.561 83.7871 119.08 83.0887C113.888 91.3292 105.217 110.743 112.071 122.475C118.925 134.207 132.321 141.889 138.162 144.264" stroke="#21254D" stroke-width="5"/>
</svg>
