<svg width="158" height="81" viewBox="0 0 158 81" fill="none" xmlns="http://www.w3.org/2000/svg">
<path d="M8.01773 69.5552C-3.42649 56.474 4.52119 46.0081 8.68377 41.2304C10.1268 39.3535 13.5457 35.9752 13.6789 29.969C13.8121 23.9628 27.221 10.6875 34.1586 5.05667C34.6581 4.54477 36.2329 3.82447 39.3964 4.52357C40.2969 4.72256 42.1639 5.61195 43.0595 7.59492C44.214 10.1513 42.8339 12.3311 41.7581 14.0305L41.7278 14.0784C43.0603 11.974 47.812 9.32255 50.6423 10.1756C54.7862 11.4247 55.4709 13.0764 56.3034 14.9533C57.1063 16.7635 55.76 20.1158 52.7183 22.9444C54.9118 21.1944 59.6781 20.3749 61.798 23.3142C64.6286 27.2387 63.13 28.2625 61.798 32.3367C66.9598 27.1973 72.2783 21.7903 73.7862 19.9016C76.7832 16.1477 79.7802 14.9533 84.2758 18.0246C88.5906 20.9724 83.8318 26.8976 81.1123 29.969C72.3432 40.6618 50.9087 63.276 45.9802 62.73C41.0518 62.1839 40.4857 63.0712 36.3231 66.3133C30.662 72.9678 16.6758 79.4518 8.01773 69.5552Z" fill="#86C29A"/>
<path fill-rule="evenodd" clip-rule="evenodd" d="M35.3116 6.17105C35.3016 6.17726 35.2992 6.17876 35.3037 6.17411C35.2606 6.21834 35.2149 6.26003 35.1669 6.29898C31.7624 9.06215 26.7394 13.7288 22.5638 18.4341C20.4753 20.7875 18.6306 23.1151 17.3096 25.1928C15.9448 27.3396 15.3013 28.974 15.2785 30.0044C15.1484 35.8717 12.1303 39.543 10.5102 41.5138C10.2967 41.7736 10.1074 42.0038 9.95224 42.2056C9.93232 42.2316 9.91161 42.2569 9.89014 42.2815C7.83638 44.6387 5.04449 48.1931 4.06016 52.6258C3.1036 56.9335 3.80432 62.3091 9.22194 68.5017C13.0714 72.9018 18.0741 73.6996 22.9357 72.5816C27.8681 71.4473 32.4842 68.3565 35.1044 65.2766C35.1751 65.1936 35.254 65.118 35.3399 65.051C35.6927 64.7763 36.029 64.5109 36.3487 64.2586C36.9358 63.7952 37.467 63.376 37.942 63.0237C38.6941 62.4659 39.4217 61.9857 40.2234 61.6351C41.8966 60.9034 43.6173 60.8584 46.1564 61.1397C46.1563 61.1397 46.156 61.1397 46.1564 61.1397C46.1651 61.1399 46.2975 61.1438 46.6008 61.0463C46.9038 60.9488 47.2952 60.7771 47.7783 60.5133C48.7454 59.9852 49.9444 59.1633 51.3328 58.0825C54.1028 55.9263 57.4687 52.8646 60.9867 49.4207C68.018 42.5375 75.5293 34.2536 79.8751 28.9544C79.8879 28.9387 79.901 28.9234 79.9144 28.9083C81.2753 27.3713 82.9898 25.2856 83.8692 23.302C84.3067 22.3151 84.4667 21.5061 84.3949 20.8871C84.3326 20.3503 84.0867 19.8332 83.3732 19.3458C81.33 17.9499 79.9148 17.7154 78.8243 17.9637C77.6696 18.2267 76.4577 19.1199 75.0366 20.8999C73.4564 22.8791 68.0512 28.3685 62.9269 33.4705C59.8767 36.5075 56.8814 39.451 54.7564 41.523C54.1249 42.1387 53.1142 42.1273 52.4968 41.4975C51.8794 40.8676 51.8881 39.857 52.5163 39.2378L52.5224 39.2319L60.4026 31.4655C60.6457 30.7572 60.8908 30.1357 61.0996 29.6059C61.1584 29.4569 61.2143 29.3152 61.2665 29.1808C61.5495 28.4521 61.7117 27.967 61.7764 27.5333C61.8769 26.8596 61.7942 26.0441 60.5003 24.2502C59.8552 23.3556 58.7411 22.9244 57.3377 22.97C55.9415 23.0153 54.5659 23.5372 53.7583 24.162C53.6277 24.2826 53.4944 24.4022 53.3583 24.5207C50.7164 26.822 47.403 29.8892 46.0768 31.1351C45.4328 31.7401 44.4202 31.7085 43.8152 31.0645C43.2101 30.4204 43.2417 29.4079 43.8858 28.8028C45.2162 27.553 48.5332 24.482 51.2116 22.1469C51.3563 22.0022 51.5095 21.865 51.6688 21.7353C53.0324 20.458 53.9746 19.1035 54.4852 17.929C55.0294 16.6773 54.9752 15.9051 54.8408 15.602C54.4086 14.6278 54.1327 14.0171 53.5758 13.4529C53.0317 12.9016 52.0949 12.2846 50.1805 11.7076C49.3501 11.4572 47.9156 11.6931 46.3152 12.4606C44.7416 13.2154 43.5204 14.2384 43.0798 14.934L43.0794 14.9346C42.8067 15.3655 42.3345 15.9301 41.8399 16.4928C41.3214 17.0829 40.6936 17.7648 40.0492 18.4585C39.8261 18.6985 39.6016 18.9395 39.3786 19.1789C38.2899 20.3474 37.2352 21.4795 36.5491 22.2959C35.9806 22.9725 34.9714 23.0601 34.2948 22.4916C33.6183 21.9231 33.5307 20.9139 34.0992 20.2373C34.8437 19.3513 35.9724 18.1401 37.0592 16.9739C37.2772 16.7399 37.4935 16.5078 37.7048 16.2804C38.348 15.588 38.9495 14.9343 39.4363 14.3804C39.9463 13.8001 40.2553 13.4128 40.375 13.224C40.3752 13.2237 40.3753 13.2234 40.3755 13.2232L40.3759 13.2225L40.4062 13.1747C41.556 11.3585 42.3547 9.92173 41.6013 8.25348C40.9692 6.85399 39.6083 6.20901 39.0512 6.08588C36.3942 5.49874 35.4185 6.10464 35.3116 6.17105ZM45.0964 9.49744C45.0881 8.68838 44.9212 7.82993 44.5177 6.93637C43.3586 4.36993 40.9855 3.23612 39.7417 2.96125C36.4025 2.22335 34.1748 2.83033 33.0915 3.86208C29.5602 6.73491 24.4432 11.4952 20.1703 16.31C18.0227 18.7301 16.0566 21.1993 14.6092 23.4759C13.2057 25.6835 12.123 27.9608 12.0793 29.9335C11.9751 34.6288 9.67693 37.4577 8.06212 39.4454C7.84148 39.717 7.6336 39.9729 7.44581 40.2157C5.33614 42.6404 2.09952 46.6935 0.936238 51.9321C-0.260633 57.322 0.78691 63.72 6.81351 70.6087C11.6221 76.1052 17.9416 77.0136 23.6529 75.7002C29.2267 74.4184 34.3778 71.0065 37.4331 67.4767C37.782 67.2043 38.0974 66.9553 38.3883 66.7256C38.943 66.2876 39.4089 65.9198 39.8481 65.594C40.5269 65.0907 41.0293 64.7753 41.5055 64.5671C42.3881 64.1811 43.4147 64.0555 45.804 64.3202C46.4232 64.3888 47.0385 64.267 47.5805 64.0927C48.1371 63.9136 48.7202 63.6451 49.312 63.3219C50.4947 62.676 51.8474 61.7372 53.2985 60.6077C56.2076 58.3431 59.6725 55.1853 63.2253 51.7074C70.3254 44.7568 77.9043 36.4013 82.3303 31.0069C83.6888 29.4715 85.6989 27.0705 86.7946 24.5989C87.3474 23.3522 87.738 21.9352 87.5736 20.5182C87.3996 19.019 86.6223 17.69 85.1784 16.7035C82.726 15.0281 80.3949 14.3241 78.1137 14.8436C75.8968 15.3485 74.1117 16.9294 72.5358 18.9033C71.506 20.1931 68.5229 23.2976 64.9996 26.8603C64.9272 25.4468 64.3083 24.0594 63.0957 22.3782C61.6209 20.3334 59.2919 19.7048 57.2338 19.7716C57.2068 19.7725 57.1798 19.7735 57.1528 19.7746C57.2486 19.584 57.3377 19.3939 57.4199 19.2048C58.1086 17.6207 58.4344 15.8116 57.766 14.3046C57.7475 14.2631 57.729 14.221 57.7102 14.1785C57.32 13.296 56.8356 12.2002 55.8534 11.2051C54.8111 10.149 53.3336 9.3157 51.104 8.6437C49.1642 8.05903 46.8888 8.66559 45.0964 9.49744Z" fill="#180079"/>
<path d="M151.589 47.4706C161.276 61.1563 151.03 71.3281 149.354 72.6226C145.761 75.3968 143.765 77.2462 139.294 78.5408C127.558 80.5751 121.784 73.3624 120.48 72.4377C120.141 72.1973 116.568 67.8142 109.489 66.7045C103.826 65.8168 99.4294 63.0057 97.9392 61.7111C91.6503 55.6813 80.3534 44.8637 72.232 37.1231C68.6458 33.7051 65.3917 31.1416 64.0354 29.3463C59.5646 23.4282 62.8557 19.3595 65.5257 17.51C68.3573 14.6989 73.2255 17.8183 75.3988 19.7293C79.8696 24.1011 88.8485 32.8847 88.9975 33.0452C83.7816 27.4969 87.2782 22.3782 91.6055 21.9486C97.194 21.3938 103.466 29.0997 105.018 30.0861L104.936 29.9991C99.1683 23.9041 91.3446 15.6361 97.0077 10.4823C101.171 6.69309 107.112 9.90813 110.166 12.6583C105.77 8.1404 110.061 4.6667 111.724 3.26954C114.146 1.2352 119.734 1.97493 123.088 4.56412C124.703 5.81141 127.658 8.99002 130.725 12.632C134.025 16.5503 137.453 21.0049 139.481 24.1679C143.393 30.271 141.902 33.7849 151.589 47.4706Z" fill="#86C29A"/>
<path fill-rule="evenodd" clip-rule="evenodd" d="M117.247 0.594398C119.613 0.878262 122.13 1.80343 124.065 3.29771C125.837 4.66561 128.896 7.97608 131.949 11.6014C135.268 15.543 138.746 20.0577 140.828 23.3045C142.395 25.7493 143.179 27.8811 144.014 30.1532C144.281 30.8785 144.553 31.6181 144.857 32.3867C146.134 35.6131 148.121 39.8011 152.895 46.5462C158.051 53.8312 157.967 60.3423 156.241 65.2263C154.556 69.9965 151.353 73.1 150.332 73.889C149.925 74.2027 149.536 74.5077 149.158 74.804C146.253 77.0807 144.004 78.8427 139.739 80.0776L139.655 80.1022L139.568 80.1173C133.305 81.2028 128.565 79.8211 125.213 78.0059C123.549 77.1049 122.246 76.1076 121.281 75.2849C120.814 74.8868 120.424 74.527 120.123 74.2496L120.097 74.2253C119.941 74.0817 119.819 73.97 119.718 73.8803C119.668 73.8365 119.629 73.8033 119.599 73.7785C119.579 73.7623 119.567 73.7524 119.56 73.7473C119.556 73.7442 119.554 73.7429 119.554 73.7429C119.419 73.6469 119.299 73.5294 119.264 73.4943L119.258 73.4888C119.201 73.433 119.13 73.3612 119.065 73.2951C118.925 73.1544 118.746 72.9753 118.521 72.7642C118.071 72.3426 117.432 71.7896 116.599 71.2112C114.935 70.0552 112.495 68.7953 109.241 68.2852C103.239 67.3444 98.5727 64.3808 96.8899 62.919L96.8602 62.8932L96.8318 62.866C90.5433 56.8366 79.2478 46.0202 71.1281 38.2813C69.8044 37.0197 68.5345 35.8833 67.3704 34.8415C66.9758 34.4885 66.5934 34.1462 66.2251 33.8137C64.8165 32.5417 63.5447 31.3511 62.7588 30.3108C60.2804 27.0301 59.7976 24.0128 60.5705 21.4418C61.2943 19.0341 63.0326 17.3156 64.5041 16.2723C66.5607 14.3284 69.2186 14.6074 71.2539 15.3445C73.3511 16.104 75.2829 17.4968 76.4553 18.5278L76.4871 18.5558L76.5174 18.5854C77.9182 19.9551 79.7776 21.7736 81.6719 23.6269L81.7192 23.5923C81.782 23.678 81.8462 23.7677 81.9114 23.8612C82.8967 24.8252 83.8866 25.7939 84.8218 26.7093C84.8844 26.1262 85.0201 25.559 85.2254 25.0137C86.2221 22.3663 88.7341 20.6258 91.4474 20.3565C92.8315 20.219 94.1877 20.4821 95.4497 20.9481C95.3967 20.8576 95.3446 20.7672 95.2933 20.6768C94.2467 18.8306 93.4802 16.8512 93.4465 14.8762C93.4114 12.8185 94.1768 10.8952 95.9308 9.29892C98.5466 6.91842 101.705 6.80694 104.438 7.57819C105.198 7.79282 105.94 8.07827 106.65 8.41085C106.689 7.58063 106.906 6.81475 107.217 6.13135C108.081 4.23043 109.753 2.83215 110.579 2.1413C110.62 2.10729 110.659 2.07499 110.695 2.04443C112.402 0.610909 114.945 0.318129 117.247 0.594398ZM109.058 13.8141C107.654 12.558 105.633 11.2407 103.568 10.6579C101.526 10.0813 99.6325 10.2569 98.0846 11.6656C97.0071 12.6462 96.6268 13.6891 96.6461 14.8216C96.6668 16.0369 97.1548 17.4717 98.0771 19.0986C99.8256 22.1829 102.812 25.4213 105.599 28.3714L116.029 21.0257L109.681 14.4083C109.461 14.2107 109.253 14.0126 109.058 13.8141ZM118.675 19.1618L111.94 12.141L111.932 12.1334C111.729 11.9271 111.51 11.7175 111.278 11.5071C110.367 10.56 110.008 9.77749 109.892 9.17828C109.777 8.58055 109.874 8.0174 110.13 7.45594C110.685 6.23482 111.865 5.24055 112.753 4.49464C113.469 3.89383 114.93 3.53931 116.866 3.77162C118.739 3.99633 120.692 4.73562 122.11 5.83052C123.388 6.81769 125.736 9.27884 128.37 12.3341L118.675 19.1618ZM130.441 14.7891L103.941 33.4525C105.786 35.0888 108.706 36.8712 112.018 37.0936C113.449 37.1897 114.965 36.9971 116.53 36.3687C120.011 34.9718 122.285 33.9554 123.706 33.259C124.418 32.9101 124.9 32.6492 125.206 32.4677C125.359 32.3764 125.452 32.3145 125.501 32.2795C125.509 32.274 125.515 32.2694 125.52 32.2657C125.496 32.2863 125.442 32.3357 125.381 32.4111L127.948 34.3173C126.78 36.0278 125.207 38.9262 124.327 41.9736C123.428 45.0843 123.362 47.9472 124.626 49.9436C126.108 52.2853 128.343 54.2826 130.603 55.8391C132.858 57.3919 135.043 58.4407 136.317 58.9184L135.193 61.9146C133.672 61.3443 131.256 60.1738 128.789 58.4747C126.327 56.7793 123.718 54.4921 121.922 51.6554C119.907 48.4735 120.276 44.4627 121.252 41.0851C121.637 39.756 122.132 38.4622 122.672 37.2636C121.362 37.8437 119.733 38.5316 117.722 39.3385C115.975 40.04 114.254 40.3286 112.612 40.3166C112.329 40.6259 111.943 41.0417 111.485 41.5256C110.543 42.5219 109.289 43.8202 108.008 45.0922C106.432 46.6574 104.619 47.253 103.03 47.2856C101.543 47.316 100.069 46.8465 99.2336 46.0169L99.2251 46.0085L99.2168 45.9999C97.1641 43.9003 92.0146 38.5904 87.8318 34.1411C87.8299 34.1391 87.828 34.137 87.8261 34.135C87.8287 34.1381 87.8003 34.1101 87.7344 34.0451C87.6707 33.9822 87.5718 33.8846 87.4319 33.747C87.1643 33.4838 86.7846 33.1111 86.3184 32.6541C85.6231 31.9724 84.7366 31.1041 83.7453 30.1336C83.5415 32.0426 82.6156 34.053 80.6243 36.03C79.4427 37.2031 78.1481 37.8852 76.7973 38.1519C76.4472 38.221 76.1006 38.2608 75.7589 38.2757C83.571 45.7295 93.3274 55.0728 99.0165 60.5274C100.345 61.6681 104.45 64.2951 109.737 65.1238C113.561 65.7233 116.448 67.2099 118.424 68.583C119.412 69.2691 120.172 69.9264 120.709 70.4289C120.976 70.6798 121.188 70.8913 121.336 71.0406C121.408 71.1129 121.453 71.1593 121.488 71.1939C121.723 71.3717 121.989 71.6174 122.219 71.8293L122.284 71.8892C122.587 72.1685 122.938 72.4927 123.357 72.8501C124.209 73.5763 125.327 74.4284 126.737 75.1919C129.517 76.6976 133.505 77.9003 138.934 76.9792C142.524 75.9261 144.307 74.5327 147.181 72.2864C147.558 71.9914 147.954 71.6818 148.376 71.3563C149.03 70.8507 151.789 68.221 153.224 64.1602C154.619 60.2133 154.813 54.7956 150.283 48.3949C145.371 41.4543 143.259 37.0425 141.882 33.5648C141.517 32.6447 141.214 31.8198 140.931 31.0519C140.13 28.8761 139.497 27.1585 138.134 25.0314C136.348 22.2458 133.413 18.3839 130.441 14.7891ZM69.3844 32.3495L69.4258 32.2906C69.4841 32.3315 69.5428 32.3728 69.6019 32.4144C70.8967 33.3249 72.3798 34.3679 73.9517 34.8423C74.7417 35.0808 75.4827 35.1496 76.1775 35.0124C76.8564 34.8784 77.5954 34.5279 78.3697 33.7591C80.283 31.8596 80.6695 30.2219 80.5768 28.9571C80.4927 27.8114 80.0003 26.7719 79.4435 25.9236C77.5668 24.0875 75.7191 22.2804 74.3113 20.9038C73.3088 20.0279 71.7361 18.9225 70.1643 18.3533C68.5493 17.7684 67.4139 17.8901 66.653 18.6455L66.5528 18.745L66.4368 18.8253C65.2606 19.64 64.0883 20.8551 63.635 22.363C63.2126 23.7683 63.3197 25.7444 65.3121 28.3819C65.8825 29.1368 66.9158 30.1257 68.3698 31.4387C68.6915 31.7292 69.0308 32.033 69.3844 32.3495ZM108.762 39.7458C104.832 38.6128 101.76 36.0381 100.258 34.2642L99.127 32.9293L102.832 30.3196C102.635 30.134 102.423 29.9316 102.203 29.7208C102.119 29.641 102.035 29.56 101.949 29.4782C101.059 28.6293 99.9962 27.6308 98.8221 26.6858C97.6436 25.7373 96.3977 24.8795 95.1577 24.2943C93.912 23.7064 92.7719 23.4407 91.7636 23.5408C90.1497 23.701 88.7497 24.7348 88.2202 26.1411C87.7256 27.4551 87.8584 29.4975 90.1633 31.9492C94.3142 36.3646 99.4303 41.6405 101.487 43.745C101.488 43.7454 101.489 43.7461 101.491 43.7474C101.512 43.763 101.633 43.8497 101.893 43.9357C102.174 44.0287 102.543 44.0949 102.964 44.0862C103.784 44.0694 104.797 43.7712 105.754 42.8212C106.834 41.7487 107.897 40.6538 108.762 39.7458ZM125.533 32.2549C125.534 32.2546 125.53 32.2581 125.52 32.2657C125.528 32.2588 125.533 32.2552 125.533 32.2549Z" fill="#180079"/>
</svg>
