<svg width="102.98" height="80" viewBox="0 0 160 126" fill="none" xmlns="http://www.w3.org/2000/svg">
<path d="M151.536 73.8907C165.501 95.2745 150.73 111.168 148.313 113.191C143.134 117.525 140.256 120.415 133.811 122.438C116.891 125.616 108.565 114.347 106.685 112.902C106.197 112.526 101.045 105.677 90.84 103.944C82.6756 102.557 76.3374 98.1642 74.1889 96.1414C68.9538 90.7015 61.3116 82.7674 53.5334 74.7049L51.7511 67.5133L60.0141 65.1689L61.2977 51.3511C53.7779 42.682 58.819 34.6842 65.0576 34.0129C73.1146 33.146 83.9299 44.0305 86.168 45.5717L95.5446 54.0805C87.2297 44.5572 61.2977 30.5453 72.846 16.0968C78.1602 9.44802 87.4138 15.1997 91.8162 19.4968C85.4793 12.4376 91.6649 7.01 94.0628 4.82695C97.5541 1.64831 105.611 2.80414 110.445 6.84972C112.774 8.79859 117.035 13.7652 121.457 19.4558C126.213 25.578 131.156 32.5383 134.079 37.4805C139.719 47.0165 137.571 52.5069 151.536 73.8907Z" fill="#FA7C9A"/>
<path d="M32.0888 50.62L36.2203 65.8438L22.1733 51.5154C17.2156 45.8438 6.80431 33.7841 4.82121 30.9185C2.34234 27.3364 1.51605 21.9633 8.12637 13.9036C13.4146 7.45589 21.8979 13.6051 25.4785 17.4857L44.4832 38.0827L42.0043 50.62H32.0888Z" fill="#FA7C9A"/>
<path d="M91.8162 19.4968C85.4793 12.4376 91.6649 7.01 94.0628 4.82695C97.5541 1.64831 105.611 2.80414 110.445 6.84972C112.774 8.79859 117.035 13.7652 121.457 19.4558M91.8162 19.4968C92.0931 19.8053 101.829 33.169 102.155 33.4836M91.8162 19.4968C92.141 19.8138 101.878 33.1791 102.155 33.4836M91.8162 19.4968C87.4138 15.1997 78.1602 9.44802 72.846 16.0968C61.2977 30.5453 87.2297 44.5572 95.5446 54.0805L86.168 45.5717C83.9299 44.0305 73.1146 33.146 65.0576 34.0129C58.819 34.6842 53.7779 42.682 61.2977 51.3511M102.155 33.4836L105.46 37.4805M61.2977 51.3511C67.3136 58.2864 90.295 72.8748 93.2492 76.1498C94.5025 77.4983 98.9965 78.6349 102.649 74.7049C106.302 70.7749 109.811 66.6684 109.9 66.4758M61.2977 51.3511L60.0141 65.1689L51.7511 67.5133L53.5334 74.7049C61.3116 82.7674 68.9538 90.7015 74.1889 96.1414C76.3374 98.1642 82.6756 102.557 90.84 103.944C101.045 105.677 106.197 112.526 106.685 112.902C108.565 114.347 116.891 125.616 133.811 122.438C140.256 120.415 143.134 117.525 148.313 113.191C150.73 111.168 165.501 95.2745 151.536 73.8907C137.571 52.5069 139.719 47.0165 134.079 37.4805C131.156 32.5383 126.213 25.578 121.457 19.4558M109.9 66.4758C103.002 65.9737 97.321 61.0928 94.8606 57.9446L121.457 19.4558M109.9 66.4758C112.289 66.6496 114.823 66.2985 117.42 65.1689C127.518 60.7765 130.759 58.7152 131.117 58.2336C127.536 63.9167 121.556 77.3056 126.283 85.3968C131.01 93.4879 140.248 98.7857 144.277 100.423M36.2203 65.8438L32.0888 50.62H42.0043L44.4832 38.0827L25.4785 17.4857C21.8979 13.6051 13.4146 7.45589 8.12637 13.9036C1.51605 21.9633 2.34234 27.3364 4.82121 30.9185C6.80431 33.7841 17.2156 45.8438 22.1733 51.5154L36.2203 65.8438Z" stroke="#222753" stroke-width="5" stroke-linecap="round"/>
</svg>
