<svg width="109" height="86" viewBox="0 0 109 86" fill="none" xmlns="http://www.w3.org/2000/svg">
<path d="M102.024 50.2605C111.334 64.5163 101.487 75.1119 99.8754 76.4604C96.4225 79.3501 94.5041 81.2766 90.207 82.6251C78.9273 84.7442 73.3769 77.231 72.1236 76.2678C71.7978 76.0174 68.3637 71.4516 61.56 70.2957C56.1171 69.371 51.8916 66.4428 50.4593 65.0943C46.9692 61.4677 41.8744 56.1783 36.689 50.8032L35.5008 46.0089L41.0094 44.4459L41.8651 35.2341C36.8519 29.4547 40.2127 24.1228 44.3717 23.6753C49.7431 23.0973 56.9533 30.3537 58.4453 31.3811L64.6964 37.0537C59.1532 30.7048 41.8651 21.3635 49.564 11.7312C53.1068 7.29868 59.2758 11.1331 62.2108 13.9979C57.9862 9.29176 62.11 5.67333 63.7085 4.21796C66.0361 2.09888 71.4075 2.86943 74.6303 5.56648C76.1828 6.86573 79.0233 10.1768 81.971 13.9705C85.1423 18.052 88.4375 22.6922 90.3861 25.987C94.1461 32.3443 92.7137 36.0046 102.024 50.2605Z" fill="#FA7C9A"/>
<path d="M22.3925 34.7466L25.1468 44.8959L15.7822 35.3436C12.4771 31.5625 5.53621 23.5228 4.21414 21.6123C2.56156 19.2243 2.0107 15.6422 6.41758 10.2691C9.94309 5.9706 15.5986 10.0701 17.9857 12.6571L30.6554 26.3885L29.0029 34.7466H22.3925Z" fill="#FA7C9A"/>
<path d="M62.2108 13.9979C57.9862 9.29176 62.11 5.67333 63.7085 4.21796C66.0361 2.09888 71.4075 2.86943 74.6303 5.56648C76.1828 6.86573 79.0233 10.1768 81.971 13.9705M62.2108 13.9979C62.3954 14.2035 68.8859 23.1127 69.1032 23.3224M62.2108 13.9979C62.4274 14.2092 68.9187 23.1194 69.1032 23.3224M62.2108 13.9979C59.2758 11.1331 53.1068 7.29868 49.564 11.7312C41.8651 21.3635 59.1532 30.7048 64.6964 37.0537L58.4453 31.3811C56.9533 30.3537 49.7431 23.0973 44.3717 23.6753C40.2127 24.1228 36.8519 29.4547 41.8651 35.2341M69.1032 23.3224L71.3067 25.987M41.8651 35.2341C45.8757 39.8576 61.1966 49.5832 63.1661 51.7665C64.0017 52.6655 66.9977 53.4232 69.4327 50.8032C71.8677 48.1833 74.2072 45.4456 74.2668 45.3172M41.8651 35.2341L41.0094 44.4459L35.5008 46.0089L36.689 50.8032C41.8744 56.1783 46.9692 61.4677 50.4593 65.0943C51.8916 66.4428 56.1171 69.371 61.56 70.2957C68.3637 71.4516 71.7978 76.0174 72.1236 76.2678C73.3769 77.231 78.9273 84.7442 90.207 82.6251C94.5041 81.2766 96.4225 79.3501 99.8754 76.4604C101.487 75.1119 111.334 64.5163 102.024 50.2605C92.7137 36.0046 94.1461 32.3443 90.3861 25.987C88.4375 22.6922 85.1423 18.052 81.971 13.9705M74.2668 45.3172C69.668 44.9824 65.8807 41.7286 64.2404 39.6297L81.971 13.9705M74.2668 45.3172C75.8591 45.4331 77.5487 45.199 79.2801 44.4459C86.0121 41.5177 88.1726 40.1435 88.4113 39.8224C86.0241 43.6111 82.0374 52.5371 85.1885 57.9312C88.3397 63.3253 94.4988 66.8571 97.1845 67.9488M25.1468 44.8959L22.3925 34.7466H29.0029L30.6554 26.3885L17.9857 12.6571C15.5986 10.0701 9.94309 5.9706 6.41758 10.2691C2.0107 15.6422 2.56156 19.2243 4.21414 21.6123C5.53621 23.5228 12.4771 31.5625 15.7822 35.3436L25.1468 44.8959Z" stroke="#222753" stroke-width="5" stroke-linecap="round"/>
</svg>
