<svg width="230" height="180" viewBox="0 0 230 180" fill="none" xmlns="http://www.w3.org/2000/svg">
<path d="M218.377 105.792C238.627 136.798 217.209 159.843 213.704 162.776C206.194 169.062 202.021 173.252 192.675 176.185C168.142 180.794 156.07 164.452 153.344 162.357C152.635 161.813 145.166 151.882 130.368 149.368C118.53 147.357 109.339 140.988 106.224 138.055C98.633 130.167 87.5518 118.663 76.2735 106.972L73.6892 96.5443L85.6704 93.1449L87.5317 73.1091C76.6279 60.539 83.9376 48.942 92.9836 47.9687C104.666 46.7117 120.348 62.4943 123.594 64.729L137.19 77.0668C125.133 63.2579 87.5317 42.9406 104.277 21.9903C111.982 12.3496 125.4 20.6896 131.784 26.9204C122.595 16.6846 131.564 8.81449 135.041 5.64907C140.104 1.04006 151.786 2.716 158.796 8.58209C162.173 11.408 168.351 18.6095 174.762 26.8609C181.659 35.7381 188.827 45.8305 193.065 52.9967C201.243 66.824 198.127 74.7851 218.377 105.792Z" fill="#81C8CF"/>
<path d="M45.1788 72.049L51.1694 94.1235L30.8013 73.3474C23.6126 65.1235 8.51625 47.637 5.64076 43.4818C2.04639 38.2878 0.848271 30.4968 10.4332 18.8103C18.1012 9.46105 30.4019 18.3774 35.5938 24.0043L63.1506 53.8699L59.5562 72.049H45.1788Z" fill="#81C8CF"/>
<path d="M131.784 26.9204C122.595 16.6846 131.564 8.81449 135.041 5.64907C140.104 1.04006 151.786 2.716 158.796 8.58209C162.173 11.408 168.351 18.6095 174.762 26.8609M131.784 26.9204C132.185 27.3676 146.302 46.7451 146.775 47.2012M131.784 26.9204C132.255 27.3801 146.373 46.7597 146.775 47.2012M131.784 26.9204C125.4 20.6896 111.982 12.3496 104.277 21.9903C87.5317 42.9406 125.133 63.2579 137.19 77.0668L123.594 64.729C120.348 62.4943 104.666 46.7117 92.9836 47.9687C83.9376 48.942 76.6279 60.539 87.5317 73.1091M146.775 47.2012L151.567 52.9967M87.5317 73.1091C96.2547 83.1653 129.578 104.318 133.861 109.067C135.679 111.023 142.195 112.671 147.491 106.972C152.787 101.274 157.876 95.3192 158.005 95.0399M87.5317 73.1091L85.6704 93.1449L73.6892 96.5443L76.2735 106.972C87.5518 118.663 98.633 130.167 106.224 138.055C109.339 140.988 118.53 147.357 130.368 149.368C145.166 151.882 152.635 161.813 153.344 162.357C156.07 164.452 168.142 180.794 192.675 176.185C202.021 173.252 206.194 169.062 213.704 162.776C217.209 159.843 238.627 136.798 218.377 105.792C198.127 74.7851 201.243 66.824 193.065 52.9967C188.827 45.8305 181.659 35.7381 174.762 26.8609M158.005 95.0399C148.003 94.3118 139.765 87.2346 136.198 82.6697L174.762 26.8609M158.005 95.0399C161.469 95.2919 165.143 94.7829 168.909 93.1449C183.551 86.776 188.25 83.7871 188.77 83.0887C183.577 91.3292 174.906 110.743 181.76 122.475C188.614 134.207 202.01 141.889 207.851 144.264M51.1694 94.1235L45.1788 72.049H59.5562L63.1506 53.8699L35.5938 24.0043C30.4019 18.3774 18.1012 9.46105 10.4332 18.8103C0.848271 30.4968 2.04639 38.2878 5.64076 43.4818C8.51625 47.637 23.6126 65.1235 30.8013 73.3474L51.1694 94.1235Z" stroke="#464FA3" stroke-width="5" stroke-linecap="round"/>
</svg>
