<svg width="156.8" height="80" viewBox="0 0 246 126" fill="none" xmlns="http://www.w3.org/2000/svg">
<path d="M12.2465 108.398C-5.63498 87.9584 6.78322 71.6056 13.2872 64.1406C15.5419 61.2078 20.8839 55.9292 21.092 46.5446C21.3001 37.1599 42.2515 16.4174 53.0914 7.61932C53.8719 6.81949 56.3325 5.69402 61.2755 6.78636C62.6825 7.09729 65.5997 8.48696 66.999 11.5853C68.8029 15.5797 66.6466 18.9856 64.9655 21.6409L64.9182 21.7157C67.0002 18.4276 74.4247 14.2847 78.8471 15.6177C85.3219 17.5692 86.3917 20.15 87.6925 23.0827C88.947 25.9111 86.8434 31.149 82.0908 35.5687C85.5181 32.8344 92.9654 31.5539 96.2778 36.1466C100.701 42.2786 98.359 43.8783 96.2778 50.2441C104.343 42.2139 112.653 33.7654 115.009 30.8144C119.692 24.949 124.375 23.0827 131.399 27.8817C138.141 32.4876 130.705 41.7456 126.456 46.5446C112.755 63.2521 79.2633 98.5865 71.5626 97.7334C63.8619 96.8802 62.9774 98.2666 56.4735 103.332C47.6281 113.73 25.7748 123.861 12.2465 108.398Z" fill="#86C29A"/>
<path fill-rule="evenodd" clip-rule="evenodd" d="M54.893 9.36054C54.8773 9.37025 54.8736 9.37258 54.8807 9.36531C54.8132 9.43443 54.7418 9.49958 54.6669 9.56043C49.3475 13.8779 41.499 21.1694 34.9747 28.5214C31.7114 32.1986 28.8291 35.8355 26.7651 39.0819C24.6324 42.4362 23.6271 44.9899 23.5914 46.6C23.3881 55.7675 18.6724 61.504 16.141 64.5834C15.8073 64.9892 15.5116 65.349 15.2692 65.6643C15.2381 65.7048 15.2057 65.7443 15.1722 65.7828C11.9632 69.466 7.60086 75.0196 6.06286 81.9458C4.56824 88.6765 5.66311 97.0758 14.1281 106.752C20.1429 113.627 27.9595 114.873 35.5558 113.126C43.2627 111.354 50.4753 106.525 54.5693 101.712C54.6796 101.583 54.8029 101.465 54.9373 101.36C55.4885 100.931 56.0139 100.516 56.5134 100.122C57.4308 99.3978 58.2607 98.7428 59.0029 98.1924C60.1781 97.3208 61.315 96.5705 62.5676 96.0227C65.182 94.8794 67.8706 94.809 71.8379 95.2486C71.8377 95.2486 71.8373 95.2486 71.8379 95.2486C71.8515 95.249 72.0584 95.2551 72.5322 95.1027C73.0058 94.9504 73.6173 94.6821 74.3721 94.2699C75.8832 93.4447 77.7566 92.1605 79.926 90.4718C84.2541 87.1027 89.5133 82.3189 95.0102 76.9377C105.996 66.1828 117.733 53.2392 124.523 44.9593C124.543 44.9349 124.564 44.9109 124.584 44.8873C126.711 42.4858 129.39 39.2268 130.764 36.1275C131.448 34.5855 131.697 33.3214 131.585 32.3542C131.488 31.5154 131.104 30.7075 129.989 29.9459C126.796 27.7648 124.585 27.3985 122.881 27.7865C121.077 28.1974 119.183 29.593 116.963 32.3743C114.494 35.4667 106.048 44.0438 98.0417 52.0157C93.2758 56.761 88.5957 61.3602 85.2753 64.5977C84.2887 65.5598 82.7095 65.5419 81.7448 64.5578C80.7801 63.5737 80.7937 61.9945 81.7752 61.0272L81.7848 61.0178L94.0974 48.8829C94.4773 47.7762 94.8602 46.805 95.1866 45.9774C95.2784 45.7445 95.3658 45.5231 95.4473 45.3131C95.8895 44.1744 96.143 43.4166 96.2441 42.7388C96.4011 41.6862 96.2719 40.412 94.2502 37.609C93.2421 36.2113 91.5014 35.5375 89.3085 35.6087C87.127 35.6796 84.9778 36.4951 83.7159 37.4712C83.5118 37.6596 83.3034 37.8465 83.0908 38.0317C78.9628 41.6275 73.7857 46.42 71.7135 48.3667C70.7072 49.312 69.1251 49.2626 68.1797 48.2563C67.2344 47.25 67.2838 45.6679 68.2901 44.7225C70.3688 42.7697 75.5516 37.9712 79.7365 34.3226C79.9627 34.0966 80.2021 33.8823 80.451 33.6795C82.5816 31.6838 84.0538 29.5674 84.8516 27.7323C85.7018 25.7765 85.6172 24.57 85.4072 24.0964C84.732 22.5741 84.3008 21.62 83.4307 20.7384C82.5805 19.877 81.1168 18.9129 78.1256 18.0113C76.828 17.6202 74.5867 17.9887 72.0861 19.188C69.6272 20.3672 67.7191 21.9658 67.0307 23.0527L67.0301 23.0535C66.604 23.7268 65.8662 24.609 65.0935 25.4883C64.2833 26.4102 63.3024 27.4756 62.2954 28.5595C61.9469 28.9346 61.5961 29.3111 61.2476 29.6853C59.5466 31.511 57.8986 33.2798 56.8266 34.5555C55.9384 35.6126 54.3614 35.7495 53.3043 34.8613C52.2472 33.973 52.1104 32.396 52.9986 31.339C54.1619 29.9545 55.9255 28.062 57.6236 26.2399C57.9642 25.8743 58.3023 25.5116 58.6323 25.1564C59.6374 24.0744 60.5772 23.053 61.3377 22.1876C62.1346 21.2809 62.6175 20.6757 62.8045 20.3807C62.8048 20.3803 62.805 20.3798 62.8053 20.3794L62.806 20.3784L62.8533 20.3036C64.6498 17.4659 65.8978 15.2209 64.7206 12.6143C63.733 10.4276 61.6066 9.41985 60.736 9.22747C56.5846 8.31006 55.0601 9.25677 54.893 9.36054ZM70.1817 14.558C70.1687 13.2939 69.9079 11.9525 69.2774 10.5563C67.4663 6.5463 63.7584 4.77473 61.8149 4.34526C56.5975 3.19228 53.1167 4.14068 51.4242 5.75278C45.9065 10.2416 37.9112 17.6794 31.2349 25.2026C27.8793 28.9839 24.8073 32.8421 22.5457 36.3993C20.3526 39.8486 18.661 43.4069 18.5926 46.4892C18.4299 53.8255 14.839 58.2457 12.3159 61.3515C11.9711 61.7758 11.6463 62.1756 11.3529 62.555C8.05656 66.3436 2.99938 72.6765 1.18176 80.8619C-0.688346 89.2836 0.948432 99.2804 10.365 110.044C17.8784 118.632 27.7526 120.052 36.6764 117.999C45.3854 115.996 53.4339 110.665 58.2079 105.15C58.7529 104.725 59.2457 104.335 59.7003 103.977C60.5671 103.292 61.2949 102.718 61.9813 102.208C63.0418 101.422 63.8269 100.929 64.5709 100.604C65.9499 100.001 67.554 99.8046 71.2874 100.218C72.2548 100.325 73.2162 100.135 74.063 99.8626C74.9328 99.5829 75.8438 99.1632 76.7685 98.6582C78.6165 97.6491 80.73 96.1822 82.9973 94.4173C87.5428 90.879 92.9567 85.945 98.5079 80.5107C109.602 69.6505 121.444 56.5951 128.359 48.1663C130.482 45.7672 133.623 42.0157 135.335 38.154C136.198 36.2059 136.809 33.9919 136.552 31.7778C136.28 29.4354 135.066 27.3588 132.809 25.8174C128.978 23.1996 125.335 22.0996 121.771 22.9113C118.307 23.7002 115.518 26.1704 113.055 29.2546C111.446 31.27 106.785 36.1206 101.28 41.6873C101.167 39.4788 100.2 37.311 98.3054 34.6841C96.0011 31.4892 92.362 30.5069 89.1462 30.6113C89.1041 30.6127 89.0619 30.6143 89.0198 30.616C89.1694 30.3182 89.3085 30.0212 89.437 29.7257C90.5131 27.2505 91.0222 24.4239 89.9777 22.0691C89.949 22.0042 89.92 21.9386 89.8906 21.8721C89.281 20.4933 88.5241 18.7811 86.9893 17.2261C85.3607 15.5761 83.0522 14.274 79.5685 13.224C76.5376 12.3105 72.9822 13.2582 70.1817 14.558Z" fill="#180079"/>
<path d="M236.576 73.8907C251.711 95.2745 235.702 111.168 233.083 113.191C227.469 117.525 224.351 120.415 217.365 122.438C199.028 125.616 190.005 114.347 187.967 112.902C187.438 112.526 181.855 105.677 170.794 103.944C161.946 102.557 155.077 98.1642 152.748 96.1414C142.922 86.72 125.27 69.8174 112.581 57.7229C106.977 52.3823 101.893 48.3768 99.7738 45.5717C92.7881 36.3247 97.9304 29.9673 102.102 27.0776C106.527 22.6853 114.133 27.5592 117.529 30.5453C124.515 37.3761 138.544 51.1003 138.777 51.3511C130.627 42.682 136.09 34.6842 142.852 34.0129C151.584 33.146 161.383 45.1864 163.809 46.7276L163.68 46.5916C154.669 37.0683 142.444 24.1495 151.293 16.0968C157.798 10.1762 167.081 15.1997 171.852 19.4968C164.984 12.4376 171.688 7.01 174.287 4.82695C178.071 1.64832 186.803 2.80414 192.042 6.84972C194.566 8.7986 199.184 13.7652 203.976 19.4558C209.131 25.578 214.488 32.5383 217.656 37.4805C223.769 47.0165 221.44 52.5069 236.576 73.8907Z" fill="#86C29A"/>
<path fill-rule="evenodd" clip-rule="evenodd" d="M182.917 0.647063C186.613 1.0906 190.547 2.53617 193.57 4.87097C196.338 7.00829 201.118 12.1809 205.888 17.8455C211.074 24.0041 216.509 31.0583 219.761 36.1314C222.21 39.9514 223.434 43.2823 224.74 46.8325C225.156 47.9658 225.581 49.1214 226.057 50.3223C228.053 55.3636 231.157 61.9073 238.616 72.4464C246.673 83.8292 246.541 94.0026 243.844 101.634C241.211 109.087 236.207 113.936 234.611 115.169C233.976 115.66 233.368 116.136 232.777 116.599C228.237 120.156 224.724 122.909 218.06 124.839L217.928 124.877L217.792 124.901C208.007 126.597 200.601 124.438 195.363 121.602C192.764 120.194 190.727 118.636 189.219 117.35C188.49 116.728 187.88 116.166 187.41 115.733L187.369 115.695C187.125 115.47 186.936 115.296 186.777 115.156C186.699 115.087 186.639 115.035 186.591 114.997C186.561 114.971 186.541 114.956 186.53 114.948C186.524 114.943 186.521 114.941 186.521 114.941C186.31 114.791 186.123 114.607 186.068 114.553L186.059 114.544C185.97 114.457 185.859 114.345 185.757 114.241C185.538 114.021 185.259 113.742 184.907 113.412C184.204 112.753 183.205 111.889 181.904 110.985C179.303 109.179 175.492 107.21 170.407 106.413C161.029 104.943 153.738 100.313 151.109 98.0287L151.062 97.9885L151.018 97.946C141.192 88.5251 123.543 71.6245 110.856 59.5326C108.788 57.5613 106.804 55.7857 104.985 54.158C104.368 53.6063 103.771 53.0715 103.195 52.5519C100.994 50.5644 99.007 48.7041 97.779 47.0786C93.9065 41.9526 93.1522 37.2381 94.3598 33.2209C95.4907 29.459 98.2068 26.7738 100.506 25.1436C103.719 22.1063 107.872 22.5423 111.053 23.694C114.329 24.8807 117.348 27.057 119.18 28.6679L119.229 28.7115L119.277 28.7578C121.466 30.8981 124.371 33.7393 127.331 36.6352L127.404 36.5811C127.503 36.715 127.603 36.8552 127.705 37.0013C129.244 38.5075 130.791 40.0211 132.252 41.4514C132.35 40.5402 132.562 39.6541 132.883 38.802C134.44 34.6654 138.365 31.946 142.605 31.5251C144.767 31.3104 146.887 31.7215 148.858 32.4495C148.775 32.3082 148.694 32.1669 148.614 32.0257C146.979 29.141 145.781 26.0481 145.728 22.9623C145.674 19.7471 146.869 16.742 149.61 14.2478C153.697 10.5283 158.633 10.3541 162.902 11.5592C164.09 11.8945 165.249 12.3405 166.359 12.8602C166.42 11.563 166.758 10.3663 167.244 9.2985C168.595 6.32833 171.207 4.14353 172.498 3.06408C172.562 3.01094 172.622 2.96048 172.679 2.91273C175.345 0.672861 179.32 0.215395 182.917 0.647063ZM170.122 21.3027C167.927 19.3402 164.77 17.2819 161.544 16.3712C158.352 15.4703 155.394 15.7447 152.975 17.9457C151.292 19.4779 150.697 21.1074 150.728 22.877C150.76 24.7758 151.523 27.0177 152.964 29.5598C155.696 34.3789 160.362 39.4389 164.716 44.0484L181.013 32.5707L171.094 22.2312C170.75 21.9224 170.426 21.613 170.122 21.3027ZM185.148 29.6585L174.624 18.6886L174.613 18.6767C174.295 18.3543 173.953 18.0268 173.59 17.698C172.166 16.2183 171.605 14.9956 171.425 14.0593C171.244 13.1254 171.397 12.2455 171.795 11.3682C172.663 9.46018 174.508 7.90664 175.895 6.74117C177.013 5.8024 179.296 5.24846 182.321 5.61144C185.247 5.96256 188.299 7.11768 190.514 8.82846C192.512 10.3709 196.18 14.2164 200.295 18.9902L185.148 29.6585ZM203.532 22.8262L162.127 51.9876C165.008 54.5443 169.572 57.3293 174.746 57.6768C176.981 57.827 179.35 57.5261 181.797 56.5442C187.235 54.3615 190.788 52.7734 193.009 51.6853C194.121 51.1401 194.874 50.7324 195.352 50.4488C195.592 50.3062 195.737 50.2094 195.813 50.1548C195.826 50.1461 195.835 50.1389 195.843 50.1332C195.805 50.1654 195.721 50.2427 195.626 50.3604L199.637 53.3389C197.812 56.0115 195.354 60.5402 193.978 65.3017C192.573 70.1622 192.47 74.6354 194.446 77.7549C196.762 81.4138 200.254 84.5345 203.786 86.9665C207.309 89.3928 210.723 91.0315 212.713 91.7778L210.957 96.4594C208.581 95.5683 204.805 93.7394 200.95 91.0846C197.103 88.4355 193.027 84.8618 190.221 80.4295C187.073 75.4579 187.649 69.191 189.175 63.9134C189.775 61.8368 190.55 59.8151 191.393 57.9424C189.346 58.8487 186.801 59.9236 183.659 61.1844C180.928 62.2805 178.24 62.7315 175.674 62.7127C175.233 63.196 174.628 63.8456 173.913 64.6017C172.442 66.1584 170.483 68.187 168.481 70.1745C166.017 72.6201 163.185 73.5508 160.702 73.6017C158.379 73.6492 156.076 72.9155 154.771 71.6193L154.757 71.6062L154.744 71.5929C151.537 68.3122 143.491 60.0155 136.955 53.0635C136.952 53.0603 136.949 53.0572 136.946 53.054C136.95 53.0588 136.906 53.0151 136.803 52.9135C136.704 52.8152 136.549 52.6627 136.331 52.4477C135.912 52.0365 135.319 51.4542 134.591 50.7401C133.504 49.675 132.119 48.3182 130.57 46.8018C130.252 49.7846 128.805 52.9259 125.694 56.0149C123.847 57.8479 121.825 58.9136 119.714 59.3303C119.167 59.4383 118.625 59.5005 118.092 59.5238C130.298 71.1704 145.542 85.7691 154.431 94.2919C156.507 96.0743 162.921 100.179 171.181 101.474C177.157 102.411 181.667 104.733 184.756 106.879C186.299 107.951 187.487 108.978 188.325 109.763C188.744 110.155 189.074 110.485 189.305 110.719C189.417 110.832 189.489 110.904 189.544 110.958C189.91 111.236 190.326 111.62 190.685 111.951L190.786 112.045C191.259 112.481 191.809 112.988 192.464 113.546C193.794 114.681 195.541 116.012 197.744 117.205C202.089 119.558 208.319 121.437 216.802 119.998C222.411 118.352 225.197 116.175 229.688 112.665C230.277 112.204 230.896 111.721 231.555 111.212C232.578 110.422 236.888 106.313 239.13 99.9682C241.309 93.8012 241.614 85.336 234.535 75.335C226.859 64.4904 223.559 57.597 221.408 52.1631C220.839 50.7254 220.364 49.4365 219.922 48.2367C218.67 44.837 217.682 42.1533 215.552 38.8296C212.762 34.4772 208.175 28.443 203.532 22.8262ZM108.131 50.2641L108.196 50.1721C108.287 50.2361 108.379 50.3006 108.471 50.3656C110.494 51.7883 112.812 53.4179 115.268 54.1592C116.502 54.5318 117.66 54.6393 118.746 54.425C119.806 54.2156 120.961 53.6679 122.171 52.4666C125.16 49.4987 125.764 46.9398 125.619 44.9636C125.488 43.1734 124.719 41.5492 123.849 40.2238C120.916 37.3548 118.029 34.5313 115.83 32.3803C114.263 31.0117 111.806 29.2846 109.35 28.3952C106.827 27.4813 105.053 27.6714 103.864 28.8518L103.707 29.0072L103.526 29.1328C101.688 30.4057 99.8564 32.3042 99.1481 34.6604C98.488 36.8561 98.6554 39.9438 101.769 44.0647C102.66 45.2444 104.274 46.7894 106.546 48.8411C107.049 49.295 107.579 49.7696 108.131 50.2641ZM169.659 61.8208C163.519 60.0506 158.718 56.0276 156.371 53.2559L154.604 51.1701L160.394 47.0925C160.086 46.8025 159.755 46.4863 159.41 46.1569C159.28 46.0321 159.147 45.9055 159.013 45.7777C157.623 44.4514 155.962 42.8913 154.128 41.4147C152.286 39.9327 150.339 38.5923 148.402 37.678C146.456 36.7594 144.674 36.3443 143.099 36.5007C140.577 36.751 138.39 38.3662 137.562 40.5637C136.789 42.6166 136.997 45.808 140.598 49.6387C147.084 56.5377 155.078 64.7813 158.292 68.0696C158.293 68.0701 158.295 68.0713 158.297 68.0732C158.331 68.0976 158.519 68.2331 158.926 68.3676C159.364 68.5128 159.941 68.6162 160.599 68.6027C161.881 68.5765 163.463 68.1105 164.958 66.6262C166.646 64.9504 168.308 63.2395 169.659 61.8208ZM195.864 50.1163C195.865 50.1158 195.859 50.1213 195.843 50.1332C195.856 50.1225 195.863 50.1168 195.864 50.1163Z" fill="#180079"/>
</svg>
