<svg width="107" height="84" viewBox="0 0 107 84" fill="none" xmlns="http://www.w3.org/2000/svg">
<path d="M101.024 49.2605C110.334 63.5163 100.487 74.1119 98.8754 75.4604C95.4225 78.3501 93.5041 80.2766 89.207 81.6251C77.9273 83.7442 72.3769 76.231 71.1236 75.2678C70.7978 75.0174 67.3637 70.4516 60.56 69.2957C55.1171 68.371 50.8916 65.4428 49.4593 64.0943C45.9692 60.4677 40.8744 55.1783 35.689 49.8032L34.5008 45.0089L40.0094 43.4459L40.8651 34.2341C35.8519 28.4547 39.2127 23.1228 43.3717 22.6753C48.7431 22.0973 55.9533 29.3537 57.4453 30.3811L63.6964 36.0537C58.1532 29.7048 40.8651 20.3635 48.564 10.7312C52.1068 6.29868 58.2758 10.1331 61.2108 12.9979C56.9862 8.29176 61.11 4.67333 62.7085 3.21796C65.0361 1.09888 70.4075 1.86943 73.6303 4.56648C75.1828 5.86573 78.0233 9.17677 80.971 12.9705C84.1423 17.052 87.4375 21.6922 89.3861 24.987C93.1461 31.3443 91.7137 35.0046 101.024 49.2605Z" fill="#FA7C9A"/>
<path d="M21.3925 33.7466L24.1468 43.8959L14.7822 34.3436C11.4771 30.5625 4.53621 22.5228 3.21414 20.6123C1.56156 18.2243 1.0107 14.6422 5.41758 9.26909C8.94309 4.9706 14.5986 9.07009 16.9857 11.6571L29.6554 25.3885L28.0029 33.7466H21.3925Z" fill="#FA7C9A"/>
<path d="M61.2108 12.9979C56.9862 8.29176 61.11 4.67333 62.7085 3.21796C65.0361 1.09888 70.4075 1.86943 73.6303 4.56648C75.1828 5.86573 78.0233 9.17677 80.971 12.9705M61.2108 12.9979C61.3954 13.2035 67.8859 22.1127 68.1032 22.3224M61.2108 12.9979C61.4274 13.2092 67.9187 22.1194 68.1032 22.3224M61.2108 12.9979C58.2758 10.1331 52.1068 6.29868 48.564 10.7312C40.8651 20.3635 58.1532 29.7048 63.6964 36.0537L57.4453 30.3811C55.9533 29.3537 48.7431 22.0973 43.3717 22.6753C39.2127 23.1228 35.8519 28.4547 40.8651 34.2341M68.1032 22.3224L70.3067 24.987M40.8651 34.2341C44.8757 38.8576 60.1966 48.5832 62.1661 50.7665C63.0017 51.6655 65.9977 52.4232 68.4327 49.8032C70.8677 47.1833 73.2072 44.4456 73.2668 44.3172M40.8651 34.2341L40.0094 43.4459L34.5008 45.0089L35.689 49.8032C40.8744 55.1783 45.9692 60.4677 49.4593 64.0943C50.8916 65.4428 55.1171 68.371 60.56 69.2957C67.3637 70.4516 70.7978 75.0174 71.1236 75.2678C72.3769 76.231 77.9273 83.7442 89.207 81.6251C93.5041 80.2766 95.4225 78.3501 98.8754 75.4604C100.487 74.1119 110.334 63.5163 101.024 49.2605C91.7137 35.0046 93.1461 31.3443 89.3861 24.987C87.4375 21.6922 84.1423 17.052 80.971 12.9705M73.2668 44.3172C68.668 43.9824 64.8807 40.7286 63.2404 38.6297L80.971 12.9705M73.2668 44.3172C74.8591 44.4331 76.5487 44.199 78.2801 43.4459C85.0121 40.5177 87.1726 39.1435 87.4113 38.8224C85.0241 42.6111 81.0374 51.5371 84.1885 56.9312C87.3397 62.3253 93.4988 65.8571 96.1845 66.9488M24.1468 43.8959L21.3925 33.7466H28.0029L29.6554 25.3885L16.9857 11.6571C14.5986 9.07009 8.94309 4.9706 5.41758 9.26909C1.0107 14.6422 1.56156 18.2243 3.21414 20.6123C4.53621 22.5228 11.4771 30.5625 14.7822 34.3436L24.1468 43.8959Z" stroke="#222753" stroke-width="3" stroke-linecap="round"/>
</svg>
